<?xml version="1.0" standalone="no"?>
<!DOCTYPE svg PUBLIC "-//W3C//DTD SVG 20010904//EN"
 "http://www.w3.org/TR/2001/REC-SVG-20010904/DTD/svg10.dtd">
<svg version="1.0" xmlns="http://www.w3.org/2000/svg"
 width="1024.000000pt" height="1024.000000pt" viewBox="0 0 1024.000000 1024.000000"
 preserveAspectRatio="xMidYMid meet">
<metadata>
Created by potrace 1.14, written by Peter Selinger 2001-2017
</metadata>
<g transform="translate(0.000000,1024.000000) scale(0.100000,-0.100000)"
fill="#000000" stroke="none">
<path d="M5292 8935 c-35 -28 -53 -49 -52 -60 0 -3 -9 -14 -20 -25 -11 -11
-20 -27 -20 -35 0 -8 -4 -15 -10 -15 -5 0 -9 -3 -8 -7 1 -5 -3 -18 -10 -30 -7
-13 -10 -23 -7 -23 3 0 -2 -11 -11 -25 -9 -14 -13 -25 -9 -25 4 0 3 -6 -2 -12
-9 -12 -41 -109 -47 -140 -1 -7 -10 -39 -19 -70 l-17 -57 -73 5 c-133 10 -448
11 -453 2 -3 -5 -11 -5 -18 1 -7 6 -23 8 -36 6 -14 -3 -70 -7 -125 -11 -98 -6
-150 -11 -150 -14 0 -1 -13 -3 -30 -4 -34 -4 -108 -14 -145 -21 -54 -11 -67
-14 -110 -24 -25 -7 -53 -13 -62 -16 -17 -4 -41 16 -36 31 1 5 -8 32 -21 59
-55 118 -71 156 -71 165 0 6 -4 10 -9 10 -5 0 -12 11 -15 24 -3 14 -12 31 -19
38 -7 7 -18 24 -25 38 -19 40 -36 64 -49 73 -7 4 -13 13 -13 18 0 15 -113 118
-122 113 -4 -3 -8 -1 -8 4 0 5 -6 9 -12 9 -7 1 -26 5 -43 11 -16 5 -37 8 -45
6 -65 -13 -90 -25 -129 -65 -46 -47 -81 -91 -81 -101 0 -6 -8 -17 -17 -25 -10
-8 -11 -11 -3 -7 8 5 5 -4 -8 -20 -12 -16 -22 -32 -22 -37 0 -4 -5 -20 -12
-36 -6 -15 -11 -31 -10 -35 1 -5 -3 -8 -9 -8 -5 0 -7 -4 -4 -10 3 -5 1 -10 -5
-10 -6 0 -9 -4 -6 -9 3 -5 -1 -23 -10 -40 -8 -17 -13 -35 -9 -41 3 -5 2 -10
-3 -10 -5 0 -13 -15 -17 -32 -9 -37 -12 -47 -14 -50 -2 -2 -5 -14 -8 -28 -6
-31 -7 -34 -22 -90 -16 -57 -25 -67 -64 -76 -17 -3 -38 -10 -47 -15 -8 -4 -66
-31 -127 -60 -62 -29 -113 -56 -113 -61 0 -4 -7 -8 -15 -8 -8 0 -15 -5 -15
-11 0 -5 -4 -8 -9 -5 -5 3 -20 -5 -34 -18 -14 -13 -28 -21 -31 -18 -3 3 -6 0
-6 -6 0 -7 -7 -12 -15 -12 -8 0 -15 -4 -15 -9 0 -5 -13 -17 -29 -28 -38 -24
-151 -130 -151 -142 0 -5 -6 -11 -13 -14 -35 -13 -227 -303 -227 -342 0 -8 -5
-15 -12 -15 -6 0 -8 -3 -5 -7 4 -3 3 -11 -2 -17 -6 -7 -12 -24 -15 -39 -2 -15
-8 -32 -13 -39 -4 -7 -8 -16 -9 -20 -1 -5 -2 -9 -4 -10 -1 -2 -3 -11 -6 -20
-2 -10 -6 -26 -8 -35 -3 -10 -5 -18 -6 -18 -4 0 -22 -92 -24 -122 0 -13 -4
-23 -8 -23 -4 0 -6 -14 -4 -30 2 -17 1 -32 -3 -34 -16 -10 -17 -294 -6 -826 4
-162 8 -366 9 -452 0 -87 4 -158 7 -158 4 0 3 -16 -1 -34 -4 -19 -6 -37 -3
-39 2 -3 4 -22 3 -43 -1 -52 -1 -60 3 -129 2 -33 -1 -66 -7 -74 -8 -11 -8 -13
0 -8 8 4 11 -13 11 -56 0 -34 3 -199 7 -367 4 -168 9 -408 11 -534 3 -126 7
-231 10 -234 3 -3 0 -11 -6 -19 -6 -7 -8 -13 -3 -13 5 0 9 -77 9 -170 0 -94 3
-170 7 -170 4 0 3 -12 -1 -28 -5 -15 -4 -38 1 -52 6 -16 5 -26 -1 -28 -5 -2
-7 -9 -5 -17 11 -27 10 -115 -1 -115 -7 0 -7 -3 0 -8 10 -7 14 -131 18 -544 1
-104 5 -188 9 -188 4 0 4 -8 1 -17 -4 -10 -6 -31 -5 -48 7 -121 7 -185 -1
-185 -4 0 -5 -6 0 -12 4 -7 8 -57 10 -111 2 -126 11 -200 26 -225 5 -6 6 -16
2 -21 -3 -5 2 -17 11 -25 8 -9 13 -16 9 -16 -9 0 23 -56 67 -117 35 -48 133
-153 143 -153 3 0 14 -8 24 -18 37 -32 50 -42 61 -42 5 0 10 -3 10 -7 0 -5 10
-13 23 -19 12 -7 69 -36 127 -65 58 -29 109 -52 113 -51 4 1 18 -3 30 -10 25
-14 42 -19 74 -22 12 -1 28 -7 35 -14 7 -6 25 -13 38 -15 14 -2 33 -7 42 -11
9 -4 22 -5 28 -1 5 3 10 1 10 -6 0 -7 10 -9 25 -7 14 3 25 2 25 -2 0 -7 90
-30 140 -36 14 -1 37 -5 51 -8 14 -3 42 -7 62 -8 20 -2 37 -5 37 -8 0 -3 12
-6 28 -6 80 -3 124 -9 128 -15 2 -4 17 -4 33 1 16 4 32 5 36 2 7 -7 30 -10
133 -14 39 -1 72 -6 72 -11 0 -4 6 -5 13 0 17 10 57 12 57 2 0 -5 10 -5 21 0
12 4 41 4 65 1 23 -4 50 -3 58 2 9 5 16 5 16 1 0 -4 16 -9 35 -9 21 -1 32 3
28 9 -4 6 -1 7 7 2 18 -11 69 -14 76 -4 3 5 10 6 16 3 18 -11 138 -11 138 0 0
7 3 8 8 1 8 -11 91 -13 108 -2 6 3 14 4 18 0 11 -11 180 -9 188 2 5 6 8 6 8 0
0 -11 91 -12 109 -1 6 4 11 2 11 -4 0 -7 6 -8 19 0 12 6 22 6 25 1 5 -8 65 -5
75 4 1 2 14 0 27 -5 13 -5 24 -6 24 -2 0 7 43 8 76 1 5 -1 11 0 14 1 16 7 62
6 66 -2 3 -4 11 -5 17 -1 7 5 50 9 97 9 245 4 299 8 293 18 -5 8 -3 8 8 0 8
-5 23 -9 34 -8 18 1 203 13 298 19 20 1 40 5 43 8 4 4 15 2 25 -4 11 -5 19 -6
19 -1 0 4 8 8 18 8 9 1 46 4 82 8 36 4 83 9 104 11 22 2 57 7 78 10 21 4 41 6
44 5 4 -1 11 4 15 12 7 10 9 10 9 0 0 -8 5 -10 13 -5 12 8 20 9 72 17 26 4 76
16 190 45 43 11 48 12 73 22 13 5 28 9 33 9 29 0 260 109 272 127 4 7 15 13
22 13 8 0 15 5 15 10 0 6 4 10 10 10 20 0 140 113 140 132 0 6 3 8 6 5 4 -4
20 15 37 41 16 26 33 48 38 50 4 2 5 10 2 18 -3 8 0 14 6 14 6 0 11 9 11 20 0
11 5 20 11 20 5 0 8 3 6 8 -3 4 0 18 6 32 12 30 14 37 21 70 3 14 9 36 13 50
4 14 8 250 10 524 2 275 5 501 8 504 2 2 37 6 77 7 40 2 73 4 73 5 0 1 25 3
55 5 30 2 69 7 85 11 17 3 39 8 50 9 11 2 20 4 20 5 0 1 9 3 20 5 28 4 65 12
103 24 17 5 32 7 32 5 0 -3 10 2 21 10 12 8 27 12 34 10 7 -3 16 -1 20 5 3 6
13 11 20 11 13 0 41 11 165 67 19 9 37 19 40 22 3 4 24 15 48 25 23 11 42 23
42 28 0 5 4 7 9 4 5 -3 12 1 15 10 4 9 9 14 12 11 6 -6 17 2 55 36 10 9 19 14
19 11 0 -3 6 1 14 8 7 7 33 29 57 48 24 19 66 57 94 85 27 27 53 49 57 48 4
-2 10 6 13 17 3 11 18 32 33 48 51 53 146 184 190 263 11 20 26 47 34 60 7 13
17 27 21 30 5 3 8 9 8 13 -1 3 0 8 0 11 1 3 2 8 3 13 1 4 16 36 34 71 18 34
32 69 32 77 0 8 4 14 10 14 5 0 9 3 9 8 -1 4 0 10 1 15 1 4 3 10 5 15 1 4 4
14 8 22 13 33 47 130 46 133 0 1 2 9 4 17 3 8 8 26 12 40 3 14 15 59 26 100
11 41 22 88 25 105 2 16 7 37 9 45 2 8 7 35 11 60 3 25 8 59 10 75 9 58 11
276 2 281 -4 3 -5 11 -1 17 10 17 11 67 1 67 -5 0 -4 8 1 19 6 10 8 21 4 25
-3 3 -7 29 -9 58 -7 142 -13 214 -18 228 -2 8 -7 38 -10 65 -10 86 -13 102
-20 114 -4 6 -1 11 6 11 9 0 9 3 -2 10 -8 5 -12 10 -9 10 3 0 -1 28 -8 63 -8
34 -16 73 -19 87 -3 14 -7 33 -10 42 -3 10 -7 30 -10 44 -3 15 -10 37 -16 48
-6 12 -11 23 -10 26 3 9 -20 85 -28 95 -5 6 -9 13 -9 18 -1 24 -26 87 -33 87
-5 0 -7 4 -4 8 5 9 -87 198 -110 223 -8 8 -14 19 -14 23 0 28 -174 229 -252
291 -35 29 -108 75 -116 75 -6 0 -12 4 -14 8 -4 10 -117 64 -173 83 -22 8 -42
16 -45 19 -3 3 -14 6 -25 7 -22 1 -71 11 -97 19 -68 20 -395 20 -450 -1 -7 -3
-26 -7 -43 -9 -16 -3 -37 -7 -45 -9 -8 -2 -33 -8 -55 -12 -49 -11 -47 -10 -65
-18 -24 -9 -94 -31 -107 -33 -11 -2 -18 23 -14 49 1 4 -3 16 -8 25 -5 9 -11
31 -14 47 -13 71 -19 88 -35 113 -13 21 -14 24 -2 17 13 -8 13 -7 0 10 -8 10
-14 20 -13 21 4 6 -7 37 -23 67 -8 15 -13 27 -9 27 3 0 -6 23 -20 50 -14 28
-22 50 -18 50 5 0 3 4 -3 8 -6 4 -24 31 -39 61 -15 30 -33 61 -41 69 -8 7 -14
18 -14 23 0 11 -15 31 -42 57 -10 9 -18 22 -18 28 0 7 -28 42 -62 78 -35 37
-68 72 -74 79 -6 7 -23 21 -38 32 -15 11 -41 32 -58 47 -17 15 -34 25 -38 23
-5 -3 -10 2 -14 10 -3 8 -12 15 -21 15 -8 0 -15 4 -15 8 0 9 -176 96 -183 90
-2 -1 -11 3 -20 11 -10 7 -17 10 -17 6 0 -4 -11 0 -25 9 -14 9 -25 14 -25 12
0 -3 -15 0 -32 5 -60 18 -63 19 -163 35 -16 3 -43 6 -60 8 -16 2 -30 5 -30 6
0 1 -15 2 -33 3 -17 1 -32 -2 -32 -6 0 -5 -6 -5 -12 0 -7 4 -44 8 -81 9 -38 1
-72 5 -77 10 -4 5 -11 25 -14 44 -3 19 -10 49 -15 67 -5 17 -7 34 -3 37 3 3 1
6 -5 6 -6 0 -14 19 -18 43 -8 43 -11 53 -15 62 -1 3 -4 10 -5 15 -1 6 -3 11
-5 13 -2 3 -11 40 -12 55 -1 6 -4 12 -7 12 -4 0 -13 20 -20 45 -7 25 -16 45
-20 45 -4 0 -7 9 -8 21 -1 11 -8 27 -15 36 -6 8 -13 22 -14 31 -2 8 -10 19
-18 24 -9 5 -16 13 -16 18 0 18 -45 62 -81 81 -50 25 -93 20 -137 -16z m2578
-2417 c65 -17 110 -34 110 -41 0 -4 4 -6 9 -3 5 3 25 -5 45 -19 20 -14 44 -25
52 -25 8 0 12 -4 9 -10 -3 -5 0 -10 7 -10 17 -1 68 -46 68 -60 0 -6 5 -8 10
-5 6 3 10 2 10 -4 0 -6 11 -22 25 -36 14 -14 23 -25 20 -25 -4 0 0 -6 7 -14
22 -22 41 -53 39 -61 -2 -4 1 -11 6 -14 13 -10 63 -115 63 -133 0 -9 5 -20 10
-23 6 -3 10 -16 10 -29 0 -12 3 -26 7 -30 4 -4 9 -19 11 -34 2 -15 6 -29 10
-32 4 -3 8 -16 9 -30 6 -76 9 -90 15 -90 4 0 8 -10 8 -22 -1 -24 6 -73 9 -73
4 0 13 -174 15 -262 0 -46 5 -83 9 -83 5 0 5 -5 2 -10 -4 -6 -8 -55 -11 -110
-2 -55 -6 -113 -9 -128 -3 -15 -11 -55 -17 -89 -6 -35 -15 -63 -20 -63 -5 0
-7 -4 -4 -9 12 -19 -90 -291 -116 -311 -3 -3 -10 -18 -13 -33 -4 -15 -11 -27
-16 -27 -5 0 -9 -4 -9 -10 0 -5 -17 -34 -37 -62 -107 -153 -219 -265 -352
-354 -39 -26 -71 -51 -71 -55 0 -5 -3 -8 -7 -8 -15 3 -73 -23 -73 -32 0 -5 -9
-9 -20 -9 -11 0 -20 -4 -20 -10 0 -5 -5 -10 -11 -10 -5 0 -34 -11 -62 -24 -58
-26 -89 -39 -99 -40 -3 -1 -10 -4 -14 -9 -4 -4 -16 -7 -26 -7 -10 0 -18 -5
-18 -11 0 -5 -4 -8 -9 -5 -5 3 -24 1 -42 -5 -61 -19 -64 -20 -69 -21 -3 0 -14
-4 -26 -8 -11 -5 -38 -11 -58 -14 -21 -4 -42 -9 -46 -11 -5 -3 -12 -1 -15 5
-10 15 -11 2513 -1 2528 4 7 12 10 17 7 5 -4 9 -1 9 4 0 6 9 11 20 11 11 0 20
5 20 11 0 5 4 8 8 5 4 -2 27 4 51 15 24 10 51 19 62 19 10 0 21 5 24 10 4 6
12 10 18 9 7 -1 19 1 27 4 8 4 29 8 45 11 17 2 30 5 30 6 0 1 15 3 34 6 19 2
37 6 39 9 5 5 270 -1 292 -7z"/>
</g>
</svg>
